<svg xmlns="http://www.w3.org/2000/svg" xmlns:xlink="http://www.w3.org/1999/xlink" contentStyleType="text/css" data-diagram-type="CLASS" height="672px" preserveAspectRatio="none" style="width:700px;height:672px;background:#FFFFFF;" version="1.1" viewBox="0 0 700 672" width="700px" zoomAndPan="magnify"><defs/><g><!--class AbstractUser--><g class="entity" data-entity="AbstractUser" data-source-line="1" data-uid="ent0002" id="entity_AbstractUser"><rect fill="#F1F1F1" height="74.8906" rx="2.5" ry="2.5" style="stroke:#181818;stroke-width:0.5;" width="469.9033" x="115.36" y="7"/><ellipse cx="130.36" cy="28.2969" fill="#A9DCDF" rx="11" ry="11" style="stroke:#181818;stroke-width:1;"/><path d="M130.4694,23.6406 L129.3131,28.7188 L131.6413,28.7188 L130.4694,23.6406 Z M128.985,21.4063 L131.9694,21.4063 L135.3288,33.7969 L132.8756,33.7969 L132.11,30.7344 L128.8288,30.7344 L128.0788,33.7969 L125.6413,33.7969 L128.985,21.4063 Z " fill="#000000"/><text fill="#000000" font-family="sans-serif" font-size="14" font-style="italic" lengthAdjust="spacing" textLength="90.6787" x="317.9723" y="24.9951">AbstractUser</text><text fill="#000000" font-family="sans-serif" font-size="14" font-style="italic" font-weight="bold" lengthAdjust="spacing" textLength="437.9033" x="144.36" y="41.292">&#1040;&#1073;&#1089;&#1090;&#1088;&#1072;&#1082;&#1090;&#1085;&#1099;&#1081; &#1073;&#1072;&#1079;&#1086;&#1074;&#1099;&#1081; &#1082;&#1083;&#1072;&#1089;&#1089; &#1076;&#1083;&#1103; &#1074;&#1089;&#1077;&#1093; &#1087;&#1086;&#1083;&#1100;&#1079;&#1086;&#1074;&#1072;&#1090;&#1077;&#1083;&#1077;&#1081;.</text><line style="stroke:#181818;stroke-width:0.5;" x1="116.36" x2="584.2633" y1="49.5938" y2="49.5938"/><line style="stroke:#181818;stroke-width:0.5;" x1="116.36" x2="584.2633" y1="57.5938" y2="57.5938"/><ellipse cx="126.36" cy="71.2422" fill="#84BE84" rx="3" ry="3" style="stroke:#038048;stroke-width:1;"/><text fill="#000000" font-family="sans-serif" font-size="14" font-style="italic" lengthAdjust="spacing" textLength="127.4082" x="135.36" y="74.5889">showInfo() : string</text></g><!--class SuperUser--><g class="entity" data-entity="SuperUser" data-source-line="4" data-uid="ent0003" id="entity_SuperUser"><rect fill="#F1F1F1" height="140.0781" rx="2.5" ry="2.5" style="stroke:#181818;stroke-width:0.5;" width="686.6299" x="7" y="390.86"/><ellipse cx="22" cy="412.1569" fill="#ADD1B2" rx="11" ry="11" style="stroke:#181818;stroke-width:1;"/><path d="M24.9688,417.7975 Q24.3906,418.0944 23.75,418.235 Q23.1094,418.3913 22.4063,418.3913 Q19.9063,418.3913 18.5781,416.7506 Q17.2656,415.0944 17.2656,411.9694 Q17.2656,408.8444 18.5781,407.1881 Q19.9063,405.5319 22.4063,405.5319 Q23.1094,405.5319 23.75,405.6881 Q24.4063,405.8444 24.9688,406.1413 L24.9688,408.86 Q24.3438,408.2819 23.75,408.0163 Q23.1563,407.735 22.5313,407.735 Q21.1875,407.735 20.5,408.8131 Q19.8125,409.8756 19.8125,411.9694 Q19.8125,414.0631 20.5,415.1413 Q21.1875,416.2038 22.5313,416.2038 Q23.1563,416.2038 23.75,415.9381 Q24.3438,415.6569 24.9688,415.0788 L24.9688,417.7975 Z " fill="#000000"/><text fill="#000000" font-family="sans-serif" font-size="14" lengthAdjust="spacing" textLength="72.9258" x="326.8521" y="408.8551">SuperUser</text><text fill="#000000" font-family="sans-serif" font-size="14" font-weight="bold" lengthAdjust="spacing" textLength="654.6299" x="36" y="425.152">&#1050;&#1083;&#1072;&#1089;&#1089; &#1089;&#1091;&#1087;&#1077;&#1088;&#1087;&#1086;&#1083;&#1100;&#1079;&#1086;&#1074;&#1072;&#1090;&#1077;&#1083;&#1103;, &#1085;&#1072;&#1089;&#1083;&#1077;&#1076;&#1091;&#1077;&#1090;&#1089;&#1103; &#1086;&#1090; User &#1080; &#1088;&#1077;&#1072;&#1083;&#1080;&#1079;&#1091;&#1077;&#1090; SuperUserInterface.</text><line style="stroke:#181818;stroke-width:0.5;" x1="8" x2="692.6299" y1="433.4538" y2="433.4538"/><ellipse cx="18" cy="447.1022" fill="none" rx="3" ry="3" style="stroke:#038048;stroke-width:1;"/><text fill="#000000" font-family="sans-serif" font-size="14" lengthAdjust="spacing" textLength="80.6299" x="27" y="450.4489">role : string</text><ellipse cx="18" cy="463.3991" fill="none" rx="3" ry="3" style="stroke:#038048;stroke-width:1;"/><text fill="#000000" font-family="sans-serif" font-size="14" lengthAdjust="spacing" text-decoration="underline" textLength="174.3164" x="27" y="466.7457">superUserCount : int = 0</text><line style="stroke:#181818;stroke-width:0.5;" x1="8" x2="692.6299" y1="474.0475" y2="474.0475"/><ellipse cx="18" cy="487.6959" fill="#84BE84" rx="3" ry="3" style="stroke:#038048;stroke-width:1;"/><text fill="#000000" font-family="sans-serif" font-size="14" lengthAdjust="spacing" textLength="284.7031" x="27" y="491.0426">__construct(name, login, password, role)</text><ellipse cx="18" cy="503.9928" fill="#84BE84" rx="3" ry="3" style="stroke:#038048;stroke-width:1;"/><text fill="#000000" font-family="sans-serif" font-size="14" lengthAdjust="spacing" textLength="127.4082" x="27" y="507.3395">showInfo() : string</text><ellipse cx="18" cy="520.2897" fill="#84BE84" rx="3" ry="3" style="stroke:#038048;stroke-width:1;"/><text fill="#000000" font-family="sans-serif" font-size="14" lengthAdjust="spacing" textLength="110.9814" x="27" y="523.6364">getInfo() : array</text></g><!--class SuperUserInterface--><g class="entity" data-entity="SuperUserInterface" data-source-line="11" data-uid="ent0004" id="entity_SuperUserInterface"><rect fill="#F1F1F1" height="74.8906" rx="2.5" ry="2.5" style="stroke:#181818;stroke-width:0.5;" width="336.3701" x="182.13" y="590.94"/><ellipse cx="197.13" cy="612.2369" fill="#B4A7E5" rx="11" ry="11" style="stroke:#181818;stroke-width:1;"/><path d="M193.0519,608.0025 L193.0519,605.8463 L200.4425,605.8463 L200.4425,608.0025 L197.9738,608.0025 L197.9738,616.0806 L200.4425,616.0806 L200.4425,618.2369 L193.0519,618.2369 L193.0519,616.0806 L195.5206,616.0806 L195.5206,608.0025 L193.0519,608.0025 Z " fill="#000000"/><text fill="#000000" font-family="sans-serif" font-size="14" font-style="italic" lengthAdjust="spacing" textLength="135.6045" x="295.5128" y="608.9351">SuperUserInterface</text><text fill="#000000" font-family="sans-serif" font-size="14" font-style="italic" font-weight="bold" lengthAdjust="spacing" textLength="304.3701" x="211.13" y="625.232">&#1048;&#1085;&#1090;&#1077;&#1088;&#1092;&#1077;&#1081;&#1089; &#1076;&#1083;&#1103; &#1089;&#1091;&#1087;&#1077;&#1088;&#1087;&#1086;&#1083;&#1100;&#1079;&#1086;&#1074;&#1072;&#1090;&#1077;&#1083;&#1077;&#1081;.</text><line style="stroke:#181818;stroke-width:0.5;" x1="183.13" x2="517.5001" y1="633.5338" y2="633.5338"/><line style="stroke:#181818;stroke-width:0.5;" x1="183.13" x2="517.5001" y1="641.5338" y2="641.5338"/><ellipse cx="193.13" cy="655.1822" fill="#84BE84" rx="3" ry="3" style="stroke:#038048;stroke-width:1;"/><text fill="#000000" font-family="sans-serif" font-size="14" lengthAdjust="spacing" textLength="110.9814" x="202.13" y="658.5289">getInfo() : array</text></g><!--class User--><g class="entity" data-entity="User" data-source-line="14" data-uid="ent0005" id="entity_User"><rect fill="#F1F1F1" height="188.9688" rx="2.5" ry="2.5" style="stroke:#181818;stroke-width:0.5;" width="284.0068" x="208.31" y="141.89"/><ellipse cx="223.31" cy="163.1869" fill="#ADD1B2" rx="11" ry="11" style="stroke:#181818;stroke-width:1;"/><path d="M226.2788,168.8275 Q225.7006,169.1244 225.06,169.265 Q224.4194,169.4213 223.7163,169.4213 Q221.2163,169.4213 219.8881,167.7806 Q218.5756,166.1244 218.5756,162.9994 Q218.5756,159.8744 219.8881,158.2181 Q221.2163,156.5619 223.7163,156.5619 Q224.4194,156.5619 225.06,156.7181 Q225.7163,156.8744 226.2788,157.1713 L226.2788,159.89 Q225.6538,159.3119 225.06,159.0463 Q224.4663,158.765 223.8413,158.765 Q222.4975,158.765 221.81,159.8431 Q221.1225,160.9056 221.1225,162.9994 Q221.1225,165.0931 221.81,166.1713 Q222.4975,167.2338 223.8413,167.2338 Q224.4663,167.2338 225.06,166.9681 Q225.6538,166.6869 226.2788,166.1088 L226.2788,168.8275 Z " fill="#000000"/><text fill="#000000" font-family="sans-serif" font-size="14" lengthAdjust="spacing" textLength="31.9102" x="347.3583" y="159.8851">User</text><text fill="#000000" font-family="sans-serif" font-size="14" font-weight="bold" lengthAdjust="spacing" textLength="252.0068" x="237.31" y="176.182">&#1050;&#1083;&#1072;&#1089;&#1089; &#1086;&#1073;&#1099;&#1095;&#1085;&#1086;&#1075;&#1086; &#1087;&#1086;&#1083;&#1100;&#1079;&#1086;&#1074;&#1072;&#1090;&#1077;&#1083;&#1103;.</text><line style="stroke:#181818;stroke-width:0.5;" x1="209.31" x2="491.3168" y1="184.4838" y2="184.4838"/><ellipse cx="219.31" cy="198.1322" fill="none" rx="3" ry="3" style="stroke:#038048;stroke-width:1;"/><text fill="#000000" font-family="sans-serif" font-size="14" lengthAdjust="spacing" textLength="93.5088" x="228.31" y="201.4789">name : string</text><ellipse cx="219.31" cy="214.4291" fill="none" rx="3" ry="3" style="stroke:#038048;stroke-width:1;"/><text fill="#000000" font-family="sans-serif" font-size="14" lengthAdjust="spacing" textLength="87.9102" x="228.31" y="217.7757">login : string</text><rect fill="none" height="6" style="stroke:#C82930;stroke-width:1;" width="6" x="216.31" y="227.7259"/><text fill="#000000" font-family="sans-serif" font-size="14" lengthAdjust="spacing" textLength="120.5176" x="228.31" y="234.0726">password : string</text><ellipse cx="219.31" cy="247.0228" fill="none" rx="3" ry="3" style="stroke:#038048;stroke-width:1;"/><text fill="#000000" font-family="sans-serif" font-size="14" lengthAdjust="spacing" text-decoration="underline" textLength="133.5195" x="228.31" y="250.3695">userCount : int = 0</text><line style="stroke:#181818;stroke-width:0.5;" x1="209.31" x2="491.3168" y1="257.6713" y2="257.6713"/><ellipse cx="219.31" cy="271.3197" fill="#84BE84" rx="3" ry="3" style="stroke:#038048;stroke-width:1;"/><text fill="#000000" font-family="sans-serif" font-size="14" lengthAdjust="spacing" textLength="248.9785" x="228.31" y="274.6664">__construct(name, login, password)</text><ellipse cx="219.31" cy="287.6166" fill="#84BE84" rx="3" ry="3" style="stroke:#038048;stroke-width:1;"/><text fill="#000000" font-family="sans-serif" font-size="14" lengthAdjust="spacing" textLength="127.4082" x="228.31" y="290.9632">showInfo() : string</text><ellipse cx="219.31" cy="303.9134" fill="#84BE84" rx="3" ry="3" style="stroke:#038048;stroke-width:1;"/><text fill="#000000" font-family="sans-serif" font-size="14" lengthAdjust="spacing" textLength="83.0225" x="228.31" y="307.2601">__destruct()</text><ellipse cx="219.31" cy="320.2103" fill="#84BE84" rx="3" ry="3" style="stroke:#038048;stroke-width:1;"/><text fill="#000000" font-family="sans-serif" font-size="14" lengthAdjust="spacing" textLength="100.1807" x="228.31" y="323.557">getPassword()</text></g><!--reverse link AbstractUser to User--><g class="link" data-entity-1="AbstractUser" data-entity-2="User" data-source-line="24" data-uid="lnk6" id="link_AbstractUser_User"><path codeLine="24" d="M350.31,100.07 C350.31,117.21 350.31,120.49 350.31,141.68" fill="none" id="AbstractUser-backto-User" style="stroke:#181818;stroke-width:1;"/><polygon fill="none" points="350.31,82.07,344.31,100.07,356.31,100.07,350.31,82.07" style="stroke:#181818;stroke-width:1;"/></g><!--reverse link User to SuperUser--><g class="link" data-entity-1="User" data-entity-2="SuperUser" data-source-line="25" data-uid="lnk7" id="link_User_SuperUser"><path codeLine="25" d="M350.31,349.1 C350.31,369.06 350.31,371.78 350.31,390.63" fill="none" id="User-backto-SuperUser" style="stroke:#181818;stroke-width:1;"/><polygon fill="none" points="350.31,331.1,344.31,349.1,356.31,349.1,350.31,331.1" style="stroke:#181818;stroke-width:1;"/></g><!--link SuperUser to SuperUserInterface--><g class="link" data-entity-1="SuperUser" data-entity-2="SuperUserInterface" data-source-line="26" data-uid="lnk8" id="link_SuperUser_SuperUserInterface"><path codeLine="26" d="M350.31,531.12 C350.31,551.49 350.31,554.99 350.31,572.48" fill="none" id="SuperUser-to-SuperUserInterface" style="stroke:#181818;stroke-width:1;stroke-dasharray:7,7;"/><polygon fill="none" points="350.31,590.48,356.31,572.48,344.31,572.48,350.31,590.48" style="stroke:#181818;stroke-width:1;"/></g><!--SRC=[fLFBQi9G4DttAmOtAaRRTR52wSfTeNHN2DSORS0caaIag53JbYuis6NfLsXhy8Ns5-R-KIV9DOaQSL4XmioScJbpJi8gbcqonGQbmImBKfSYlhLKyqulLahuWMFUvmv_mX4kk8ChFi0vu9Z2AQxnEmWNkCGHuVg04rpo8L2XZov_1Vmbr9A_1sW2EUWIsCLveNXQAQM0MH3V2fqJe5-7YLmFSjQzqIxhDIEJXNEWhARN2TEZHx2-QJLLCwBy5PAXlsSYu1BxH1fyA06kFB1FQK9ebsxjUmUikGC-8Pm1zRjqy19dE0qm4EuiwxPgrfYYHlU4DN5CpZGQQfmxfQmDvifewJOLEvRDR4tfWKRX1Pm5C5bM39twMegTqTc3Aa73g6kw14swl6sOLGcyuLanD54fAjHLEympqsIFGa1jGpucOdXGeEOdMUvu4l8NpxN8ucFYRdkyFtuZpY5kmjmaNsdDc0_u6tctnXzSmo5xe_rnEpmXTmJoLTtEvJSIxq1R_pVjc5soN5L5VpOKwLeq-obFeAtFfjZDv_qZgH0bGjKf6xsLXKAtb608OT99FkrDIYTj-0C0]--></g></svg>