<svg xmlns="http://www.w3.org/2000/svg" xmlns:xlink="http://www.w3.org/1999/xlink" contentStyleType="text/css" data-diagram-type="CLASS" height="398px" preserveAspectRatio="none" style="width:198px;height:398px;background:#FFFFFF;" version="1.1" viewBox="0 0 198 398" width="198px" zoomAndPan="magnify"><defs/><g><!--class NumbersSquared--><g class="entity" data-entity="NumbersSquared" data-source-line="1" data-uid="ent0002" id="entity_NumbersSquared"><rect fill="#F1F1F1" height="194.6719" rx="2.5" ry="2.5" style="stroke:#181818;stroke-width:0.5;" width="184.5391" x="7" y="7"/><ellipse cx="35.736" cy="23" fill="#ADD1B2" rx="11" ry="11" style="stroke:#181818;stroke-width:1;"/><path d="M38.7047,28.6406 Q38.1266,28.9375 37.486,29.0781 Q36.8454,29.2344 36.1422,29.2344 Q33.6422,29.2344 32.3141,27.5938 Q31.0016,25.9375 31.0016,22.8125 Q31.0016,19.6875 32.3141,18.0313 Q33.6422,16.375 36.1422,16.375 Q36.8454,16.375 37.486,16.5313 Q38.1422,16.6875 38.7047,16.9844 L38.7047,19.7031 Q38.0797,19.125 37.486,18.8594 Q36.8922,18.5781 36.2672,18.5781 Q34.9235,18.5781 34.236,19.6563 Q33.5485,20.7188 33.5485,22.8125 Q33.5485,24.9063 34.236,25.9844 Q34.9235,27.0469 36.2672,27.0469 Q36.8922,27.0469 37.486,26.7813 Q38.0797,26.5 38.7047,25.9219 L38.7047,28.6406 Z " fill="#000000"/><text fill="#000000" font-family="sans-serif" font-size="14" lengthAdjust="spacing" textLength="122.0146" x="52.7884" y="27.8467">NumbersSquared</text><line style="stroke:#181818;stroke-width:0.5;" x1="8" x2="190.5391" y1="39" y2="39"/><rect fill="none" height="6" style="stroke:#C82930;stroke-width:1;" width="6" x="15" y="49.6484"/><text fill="#000000" font-family="sans-serif" font-size="14" lengthAdjust="spacing" textLength="64.4766" x="27" y="55.9951">start : int</text><rect fill="none" height="6" style="stroke:#C82930;stroke-width:1;" width="6" x="15" y="65.9453"/><text fill="#000000" font-family="sans-serif" font-size="14" lengthAdjust="spacing" textLength="58.2422" x="27" y="72.292">end : int</text><rect fill="none" height="6" style="stroke:#C82930;stroke-width:1;" width="6" x="15" y="82.2422"/><text fill="#000000" font-family="sans-serif" font-size="14" lengthAdjust="spacing" textLength="82.9268" x="27" y="88.5889">current : int</text><line style="stroke:#181818;stroke-width:0.5;" x1="8" x2="190.5391" y1="95.8906" y2="95.8906"/><ellipse cx="18" cy="109.5391" fill="#84BE84" rx="3" ry="3" style="stroke:#038048;stroke-width:1;"/><text fill="#000000" font-family="sans-serif" font-size="14" lengthAdjust="spacing" textLength="158.5391" x="27" y="112.8857">__construct(start, end)</text><ellipse cx="18" cy="125.8359" fill="#84BE84" rx="3" ry="3" style="stroke:#038048;stroke-width:1;"/><text fill="#000000" font-family="sans-serif" font-size="14" lengthAdjust="spacing" textLength="58.3926" x="27" y="129.1826">rewind()</text><ellipse cx="18" cy="142.1328" fill="#84BE84" rx="3" ry="3" style="stroke:#038048;stroke-width:1;"/><text fill="#000000" font-family="sans-serif" font-size="14" lengthAdjust="spacing" textLength="44.4541" x="27" y="145.4795">valid()</text><ellipse cx="18" cy="158.4297" fill="#84BE84" rx="3" ry="3" style="stroke:#038048;stroke-width:1;"/><text fill="#000000" font-family="sans-serif" font-size="14" lengthAdjust="spacing" textLength="42.1846" x="27" y="161.7764">next()</text><ellipse cx="18" cy="174.7266" fill="#84BE84" rx="3" ry="3" style="stroke:#038048;stroke-width:1;"/><text fill="#000000" font-family="sans-serif" font-size="14" lengthAdjust="spacing" textLength="35.9297" x="27" y="178.0732">key()</text><ellipse cx="18" cy="191.0234" fill="#84BE84" rx="3" ry="3" style="stroke:#038048;stroke-width:1;"/><text fill="#000000" font-family="sans-serif" font-size="14" lengthAdjust="spacing" textLength="61.9814" x="27" y="194.3701">current()</text></g><!--class Iterator--><g class="entity" data-entity="Iterator" data-source-line="13" data-uid="ent0003" id="entity_Iterator"><rect fill="#F1F1F1" height="129.4844" rx="2.5" ry="2.5" style="stroke:#181818;stroke-width:0.5;" width="144.9111" x="26.81" y="261.68"/><ellipse cx="69.0504" cy="277.68" fill="#B4A7E5" rx="11" ry="11" style="stroke:#181818;stroke-width:1;"/><path d="M64.9723,273.4456 L64.9723,271.2894 L72.3629,271.2894 L72.3629,273.4456 L69.8941,273.4456 L69.8941,281.5238 L72.3629,281.5238 L72.3629,283.68 L64.9723,283.68 L64.9723,281.5238 L67.441,281.5238 L67.441,273.4456 L64.9723,273.4456 Z " fill="#000000"/><text fill="#000000" font-family="sans-serif" font-size="14" font-style="italic" lengthAdjust="spacing" textLength="52.377" x="89.1038" y="282.5267">Iterator</text><line style="stroke:#181818;stroke-width:0.5;" x1="27.81" x2="170.7211" y1="293.68" y2="293.68"/><line style="stroke:#181818;stroke-width:0.5;" x1="27.81" x2="170.7211" y1="301.68" y2="301.68"/><ellipse cx="37.81" cy="315.3284" fill="#84BE84" rx="3" ry="3" style="stroke:#038048;stroke-width:1;"/><text fill="#000000" font-family="sans-serif" font-size="14" lengthAdjust="spacing" textLength="101.6367" x="46.81" y="318.6751">rewind() : void</text><ellipse cx="37.81" cy="331.6253" fill="#84BE84" rx="3" ry="3" style="stroke:#038048;stroke-width:1;"/><text fill="#000000" font-family="sans-serif" font-size="14" lengthAdjust="spacing" textLength="87.9785" x="46.81" y="334.972">valid() : bool</text><ellipse cx="37.81" cy="347.9222" fill="#84BE84" rx="3" ry="3" style="stroke:#038048;stroke-width:1;"/><text fill="#000000" font-family="sans-serif" font-size="14" lengthAdjust="spacing" textLength="85.4287" x="46.81" y="351.2689">next() : void</text><ellipse cx="37.81" cy="364.2191" fill="#84BE84" rx="3" ry="3" style="stroke:#038048;stroke-width:1;"/><text fill="#000000" font-family="sans-serif" font-size="14" lengthAdjust="spacing" textLength="92.8594" x="46.81" y="367.5657">key() : mixed</text><ellipse cx="37.81" cy="380.5159" fill="#84BE84" rx="3" ry="3" style="stroke:#038048;stroke-width:1;"/><text fill="#000000" font-family="sans-serif" font-size="14" lengthAdjust="spacing" textLength="118.9111" x="46.81" y="383.8626">current() : mixed</text></g><!--link NumbersSquared to Iterator--><g class="link" data-entity-1="NumbersSquared" data-entity-2="Iterator" data-source-line="21" data-uid="lnk4" id="link_NumbersSquared_Iterator"><path codeLine="21" d="M99.27,201.87 C99.27,221.96 99.27,224.67 99.27,243.25" fill="none" id="NumbersSquared-to-Iterator" style="stroke:#181818;stroke-width:1;stroke-dasharray:7,7;"/><polygon fill="none" points="99.27,261.25,105.27,243.25,93.27,243.25,99.27,261.25" style="stroke:#181818;stroke-width:1;"/></g><!--SRC=[NP113i8W44NtFSMagvfg3-32lHit7g2XC2R45k80jKQzkvCMI2kh_nyp_1zaBvo3yXA63ibT7q4GgXA4Wos2Tm5y3iuByd04RVm2qAYrbO48pNgYRbjfZVCKfA_czJtmqcwv97ngewheHj7hR0nEFkaxlfAC2RFz5WN78Ds4H3Yp4DvIh5f3UflBZ5QhI6C6myxQFi8bQpiuPp8Qz8I9vV3CkSBVJpNDvvJB_000]--></g></svg>