<svg xmlns="http://www.w3.org/2000/svg" xmlns:xlink="http://www.w3.org/1999/xlink" contentStyleType="text/css" data-diagram-type="CLASS" height="392px" preserveAspectRatio="none" style="width:570px;height:392px;background:#FFFFFF;" version="1.1" viewBox="0 0 570 392" width="570px" zoomAndPan="magnify"><defs/><g><!--class INewsDB--><g class="entity" data-entity="INewsDB" data-source-line="1" data-uid="ent0002" id="entity_INewsDB"><rect fill="#F1F1F1" height="107.4844" rx="2.5" ry="2.5" style="stroke:#181818;stroke-width:0.5;" width="348.1094" x="7" y="277.97"/><ellipse cx="103.5781" cy="299.2669" fill="#B4A7E5" rx="11" ry="11" style="stroke:#181818;stroke-width:1;"/><path d="M99.5,295.0325 L99.5,292.8762 L106.8906,292.8762 L106.8906,295.0325 L104.4219,295.0325 L104.4219,303.1106 L106.8906,303.1106 L106.8906,305.2669 L99.5,305.2669 L99.5,303.1106 L101.9688,303.1106 L101.9688,295.0325 L99.5,295.0325 Z " fill="#000000"/><text fill="#000000" font-family="sans-serif" font-size="14" font-style="italic" lengthAdjust="spacing" textLength="62.3438" x="166.1328" y="295.9651">INewsDB</text><text fill="#000000" font-family="sans-serif" font-size="14" font-style="italic" font-weight="bold" lengthAdjust="spacing" textLength="146.4531" x="124.0781" y="312.262">Interface INewsDB</text><line style="stroke:#181818;stroke-width:0.5;" x1="8" x2="354.1094" y1="320.5637" y2="320.5637"/><line style="stroke:#181818;stroke-width:0.5;" x1="8" x2="354.1094" y1="328.5637" y2="328.5637"/><ellipse cx="18" cy="342.2122" fill="#84BE84" rx="3" ry="3" style="stroke:#038048;stroke-width:1;"/><text fill="#000000" font-family="sans-serif" font-size="14" lengthAdjust="spacing" textLength="322.1094" x="27" y="345.5589">saveNews(title, category, description, source)</text><ellipse cx="18" cy="358.5091" fill="#84BE84" rx="3" ry="3" style="stroke:#038048;stroke-width:1;"/><text fill="#000000" font-family="sans-serif" font-size="14" lengthAdjust="spacing" textLength="71.7432" x="27" y="361.8557">getNews()</text><ellipse cx="18" cy="374.8059" fill="#84BE84" rx="3" ry="3" style="stroke:#038048;stroke-width:1;"/><text fill="#000000" font-family="sans-serif" font-size="14" lengthAdjust="spacing" textLength="105.6357" x="27" y="378.1526">deleteNews(id)</text></g><!--class NewsDB--><g class="entity" data-entity="NewsDB" data-source-line="6" data-uid="ent0003" id="entity_NewsDB"><rect fill="#F1F1F1" height="210.9688" rx="2.5" ry="2.5" style="stroke:#181818;stroke-width:0.5;" width="348.1094" x="155" y="7"/><ellipse cx="295.6973" cy="23" fill="#ADD1B2" rx="11" ry="11" style="stroke:#181818;stroke-width:1;"/><path d="M298.666,28.6406 Q298.0879,28.9375 297.4473,29.0781 Q296.8066,29.2344 296.1035,29.2344 Q293.6035,29.2344 292.2754,27.5938 Q290.9629,25.9375 290.9629,22.8125 Q290.9629,19.6875 292.2754,18.0313 Q293.6035,16.375 296.1035,16.375 Q296.8066,16.375 297.4473,16.5313 Q298.1035,16.6875 298.666,16.9844 L298.666,19.7031 Q298.041,19.125 297.4473,18.8594 Q296.8535,18.5781 296.2285,18.5781 Q294.8848,18.5781 294.1973,19.6563 Q293.5098,20.7188 293.5098,22.8125 Q293.5098,24.9063 294.1973,25.9844 Q294.8848,27.0469 296.2285,27.0469 Q296.8535,27.0469 297.4473,26.7813 Q298.041,26.5 298.666,25.9219 L298.666,28.6406 Z " fill="#000000"/><text fill="#000000" font-family="sans-serif" font-size="14" lengthAdjust="spacing" textLength="58.2148" x="316.1973" y="27.8467">NewsDB</text><line style="stroke:#181818;stroke-width:0.5;" x1="156" x2="502.1094" y1="39" y2="39"/><rect fill="none" height="6" style="stroke:#C82930;stroke-width:1;" width="6" x="163" y="49.6484"/><text fill="#000000" font-family="sans-serif" font-size="14" lengthAdjust="spacing" textLength="89.4961" x="175" y="55.9951">items : array</text><rect fill="none" height="6" style="stroke:#C82930;stroke-width:1;" width="6" x="163" y="65.9453"/><text fill="#000000" font-family="sans-serif" font-size="14" lengthAdjust="spacing" textLength="33.9404" x="175" y="72.292">_db :</text><line style="stroke:#181818;stroke-width:0.5;" x1="156" x2="502.1094" y1="79.5938" y2="79.5938"/><ellipse cx="166" cy="93.2422" fill="#84BE84" rx="3" ry="3" style="stroke:#038048;stroke-width:1;"/><text fill="#000000" font-family="sans-serif" font-size="14" lengthAdjust="spacing" textLength="90.6582" x="175" y="96.5889">__construct()</text><ellipse cx="166" cy="109.5391" fill="#84BE84" rx="3" ry="3" style="stroke:#038048;stroke-width:1;"/><text fill="#000000" font-family="sans-serif" font-size="14" lengthAdjust="spacing" textLength="83.0225" x="175" y="112.8857">__destruct()</text><rect fill="#F24D5C" height="6" style="stroke:#C82930;stroke-width:1;" width="6" x="163" y="122.8359"/><text fill="#000000" font-family="sans-serif" font-size="14" lengthAdjust="spacing" textLength="109.375" x="175" y="129.1826">getCategories()</text><ellipse cx="166" cy="142.1328" fill="#84BE84" rx="3" ry="3" style="stroke:#038048;stroke-width:1;"/><text fill="#000000" font-family="sans-serif" font-size="14" lengthAdjust="spacing" textLength="86.29" x="175" y="145.4795">getIterator()</text><polygon fill="#FFFF44" points="166,153.4297,170,157.4297,166,161.4297,162,157.4297" style="stroke:#B38D22;stroke-width:1;"/><text fill="#000000" font-family="sans-serif" font-size="14" lengthAdjust="spacing" textLength="53.5801" x="175" y="161.7764">getDb()</text><ellipse cx="166" cy="174.7266" fill="#84BE84" rx="3" ry="3" style="stroke:#038048;stroke-width:1;"/><text fill="#000000" font-family="sans-serif" font-size="14" lengthAdjust="spacing" textLength="322.1094" x="175" y="178.0732">saveNews(title, category, description, source)</text><ellipse cx="166" cy="191.0234" fill="#84BE84" rx="3" ry="3" style="stroke:#038048;stroke-width:1;"/><text fill="#000000" font-family="sans-serif" font-size="14" lengthAdjust="spacing" textLength="71.7432" x="175" y="194.3701">getNews()</text><ellipse cx="166" cy="207.3203" fill="#84BE84" rx="3" ry="3" style="stroke:#038048;stroke-width:1;"/><text fill="#000000" font-family="sans-serif" font-size="14" lengthAdjust="spacing" textLength="105.6357" x="175" y="210.667">deleteNews(id)</text></g><!--class IteratorAggregate--><g class="entity" data-entity="IteratorAggregate" data-source-line="18" data-uid="ent0004" id="entity_IteratorAggregate"><rect fill="#F1F1F1" height="64.2969" rx="2.5" ry="2.5" style="stroke:#181818;stroke-width:0.5;" width="173.834" x="390.14" y="299.56"/><ellipse cx="412.416" cy="315.56" fill="#ADD1B2" rx="11" ry="11" style="stroke:#181818;stroke-width:1;"/><path d="M415.3848,321.2006 Q414.8067,321.4975 414.166,321.6381 Q413.5254,321.7944 412.8223,321.7944 Q410.3223,321.7944 408.9942,320.1538 Q407.6817,318.4975 407.6817,315.3725 Q407.6817,312.2475 408.9942,310.5913 Q410.3223,308.935 412.8223,308.935 Q413.5254,308.935 414.166,309.0913 Q414.8223,309.2475 415.3848,309.5444 L415.3848,312.2631 Q414.7598,311.685 414.166,311.4194 Q413.5723,311.1381 412.9473,311.1381 Q411.6035,311.1381 410.916,312.2163 Q410.2285,313.2788 410.2285,315.3725 Q410.2285,317.4663 410.916,318.5444 Q411.6035,319.6069 412.9473,319.6069 Q413.5723,319.6069 414.166,319.3413 Q414.7598,319.06 415.3848,318.4819 L415.3848,321.2006 Z " fill="#000000"/><text fill="#000000" font-family="sans-serif" font-size="14" lengthAdjust="spacing" textLength="125.665" x="428.0329" y="320.4067">IteratorAggregate</text><line style="stroke:#181818;stroke-width:0.5;" x1="391.14" x2="562.974" y1="331.56" y2="331.56"/><line style="stroke:#181818;stroke-width:0.5;" x1="391.14" x2="562.974" y1="339.56" y2="339.56"/><ellipse cx="401.14" cy="353.2084" fill="#84BE84" rx="3" ry="3" style="stroke:#038048;stroke-width:1;"/><text fill="#000000" font-family="sans-serif" font-size="14" lengthAdjust="spacing" textLength="147.834" x="410.14" y="356.5551">getIterator(): Iterator</text></g><!--link NewsDB to IteratorAggregate--><g class="link" data-entity-1="NewsDB" data-entity-2="IteratorAggregate" data-source-line="21" data-uid="lnk5" id="link_NewsDB_IteratorAggregate"><path codeLine="21" d="M400.45,218.28 C420.56,247.79 430.7877,262.7926 445.4577,284.3326" fill="none" id="NewsDB-to-IteratorAggregate" style="stroke:#181818;stroke-width:1;stroke-dasharray:7,7;"/><polygon fill="none" points="455.59,299.21,450.4168,280.9552,440.4985,287.7101,455.59,299.21" style="stroke:#181818;stroke-width:1;"/></g><!--link NewsDB to INewsDB--><g class="link" data-entity-1="NewsDB" data-entity-2="INewsDB" data-source-line="22" data-uid="lnk6" id="link_NewsDB_INewsDB"><path codeLine="22" d="M257.66,218.28 C243.61,238.89 239.5785,244.8169 227.3085,262.8169" fill="none" id="NewsDB-to-INewsDB" style="stroke:#181818;stroke-width:1;stroke-dasharray:7,7;"/><polygon fill="none" points="217.17,277.69,232.2662,266.1964,222.3508,259.4374,217.17,277.69" style="stroke:#181818;stroke-width:1;"/></g><!--SRC=[jP3FYi8m4CRlVOgXNfIjUYzIMFNIYq-m4D9qDWHg8pEZ8hk- -qQJ5l-SDv33_2Opt_V5zOBqhGr2Nk_mpDlrLxzggdh4YQwMJPM3vg66dmp2-M1zmXkPYfCE2p1Qq7gw5D0Y6t87SRulWFsH3CxYZ4MvZwIonGubBd7jZLt3DPrcXZoAtOMVTETESCzGWYRIbuXKsq0PLofbVCz2HoE3YbB1q2EP1nkRwDRXQ2R0EaJNuYcXIK3RPkZ_JzwOTX3-j9RGXiKfx8khSdoONRFqAul5R_K-_zoDnHy0]--></g></svg>