<svg xmlns="http://www.w3.org/2000/svg" xmlns:xlink="http://www.w3.org/1999/xlink" contentStyleType="text/css" data-diagram-type="CLASS" height="343px" preserveAspectRatio="none" style="width:364px;height:343px;background:#FFFFFF;" version="1.1" viewBox="0 0 364 343" width="364px" zoomAndPan="magnify"><defs/><g><!--class INewsDB--><g class="entity" data-entity="INewsDB" data-source-line="1" data-uid="ent0002" id="entity_INewsDB"><rect fill="#F1F1F1" height="107.4844" rx="2.5" ry="2.5" style="stroke:#181818;stroke-width:0.5;" width="348.1094" x="9" y="7"/><ellipse cx="109.1294" cy="28.2969" fill="#B4A7E5" rx="11" ry="11" style="stroke:#181818;stroke-width:1;"/><path d="M105.0513,24.0625 L105.0513,21.9063 L112.4419,21.9063 L112.4419,24.0625 L109.9731,24.0625 L109.9731,32.1406 L112.4419,32.1406 L112.4419,34.2969 L105.0513,34.2969 L105.0513,32.1406 L107.52,32.1406 L107.52,24.0625 L105.0513,24.0625 Z " fill="#000000"/><text fill="#000000" font-family="sans-serif" font-size="14" font-style="italic" lengthAdjust="spacing" textLength="62.3438" x="168.1328" y="24.9951">INewsDB</text><text fill="#000000" font-family="sans-serif" font-size="14" font-style="italic" font-weight="bold" lengthAdjust="spacing" textLength="139.3506" x="129.6294" y="41.292">inerface INewsDB</text><line style="stroke:#181818;stroke-width:0.5;" x1="10" x2="356.1094" y1="49.5938" y2="49.5938"/><line style="stroke:#181818;stroke-width:0.5;" x1="10" x2="356.1094" y1="57.5938" y2="57.5938"/><ellipse cx="20" cy="71.2422" fill="#84BE84" rx="3" ry="3" style="stroke:#038048;stroke-width:1;"/><text fill="#000000" font-family="sans-serif" font-size="14" lengthAdjust="spacing" textLength="322.1094" x="29" y="74.5889">saveNews(title, category, description, source)</text><ellipse cx="20" cy="87.5391" fill="#84BE84" rx="3" ry="3" style="stroke:#038048;stroke-width:1;"/><text fill="#000000" font-family="sans-serif" font-size="14" lengthAdjust="spacing" textLength="71.7432" x="29" y="90.8857">getNews()</text><ellipse cx="20" cy="103.8359" fill="#84BE84" rx="3" ry="3" style="stroke:#038048;stroke-width:1;"/><text fill="#000000" font-family="sans-serif" font-size="14" lengthAdjust="spacing" textLength="105.6357" x="29" y="107.1826">deleteNews(id)</text></g><!--class NewsDB--><g class="entity" data-entity="NewsDB" data-source-line="6" data-uid="ent0003" id="entity_NewsDB"><rect fill="#F1F1F1" height="162.0781" rx="2.5" ry="2.5" style="stroke:#181818;stroke-width:0.5;" width="348.1094" x="9" y="174.48"/><ellipse cx="149.6973" cy="190.48" fill="#ADD1B2" rx="11" ry="11" style="stroke:#181818;stroke-width:1;"/><path d="M152.666,196.1206 Q152.0879,196.4175 151.4473,196.5581 Q150.8066,196.7144 150.1035,196.7144 Q147.6035,196.7144 146.2754,195.0738 Q144.9629,193.4175 144.9629,190.2925 Q144.9629,187.1675 146.2754,185.5113 Q147.6035,183.855 150.1035,183.855 Q150.8066,183.855 151.4473,184.0113 Q152.1035,184.1675 152.666,184.4644 L152.666,187.1831 Q152.041,186.605 151.4473,186.3394 Q150.8535,186.0581 150.2285,186.0581 Q148.8848,186.0581 148.1973,187.1363 Q147.5098,188.1988 147.5098,190.2925 Q147.5098,192.3863 148.1973,193.4644 Q148.8848,194.5269 150.2285,194.5269 Q150.8535,194.5269 151.4473,194.2613 Q152.041,193.98 152.666,193.4019 L152.666,196.1206 Z " fill="#000000"/><text fill="#000000" font-family="sans-serif" font-size="14" lengthAdjust="spacing" textLength="58.2148" x="170.1973" y="195.3267">NewsDB</text><line style="stroke:#181818;stroke-width:0.5;" x1="10" x2="356.1094" y1="206.48" y2="206.48"/><rect fill="none" height="6" style="stroke:#C82930;stroke-width:1;" width="6" x="17" y="217.1284"/><text fill="#000000" font-family="sans-serif" font-size="14" lengthAdjust="spacing" textLength="33.9404" x="29" y="223.4751">_db :</text><line style="stroke:#181818;stroke-width:0.5;" x1="10" x2="356.1094" y1="230.7769" y2="230.7769"/><ellipse cx="20" cy="244.4253" fill="#84BE84" rx="3" ry="3" style="stroke:#038048;stroke-width:1;"/><text fill="#000000" font-family="sans-serif" font-size="14" lengthAdjust="spacing" textLength="90.6582" x="29" y="247.772">__construct()</text><ellipse cx="20" cy="260.7222" fill="#84BE84" rx="3" ry="3" style="stroke:#038048;stroke-width:1;"/><text fill="#000000" font-family="sans-serif" font-size="14" lengthAdjust="spacing" textLength="83.0225" x="29" y="264.0689">__destruct()</text><polygon fill="#FFFF44" points="20,272.0191,24,276.0191,20,280.0191,16,276.0191" style="stroke:#B38D22;stroke-width:1;"/><text fill="#000000" font-family="sans-serif" font-size="14" lengthAdjust="spacing" textLength="53.5801" x="29" y="280.3657">getDb()</text><ellipse cx="20" cy="293.3159" fill="#84BE84" rx="3" ry="3" style="stroke:#038048;stroke-width:1;"/><text fill="#000000" font-family="sans-serif" font-size="14" lengthAdjust="spacing" textLength="322.1094" x="29" y="296.6626">saveNews(title, category, description, source)</text><ellipse cx="20" cy="309.6128" fill="#84BE84" rx="3" ry="3" style="stroke:#038048;stroke-width:1;"/><text fill="#000000" font-family="sans-serif" font-size="14" lengthAdjust="spacing" textLength="71.7432" x="29" y="312.9595">getNews()</text><ellipse cx="20" cy="325.9097" fill="#84BE84" rx="3" ry="3" style="stroke:#038048;stroke-width:1;"/><text fill="#000000" font-family="sans-serif" font-size="14" lengthAdjust="spacing" textLength="105.6357" x="29" y="329.2564">deleteNews(id)</text></g><!--reverse link INewsDB to NewsDB--><g class="link" data-entity-1="INewsDB" data-entity-2="NewsDB" data-source-line="15" data-uid="lnk4" id="link_INewsDB_NewsDB"><path codeLine="15" d="M183.05,132.93 C183.05,151.21 183.05,154.1 183.05,174.05" fill="none" id="INewsDB-backto-NewsDB" style="stroke:#181818;stroke-width:1;"/><polygon fill="none" points="183.05,114.93,177.05,132.93,189.05,132.93,183.05,114.93" style="stroke:#181818;stroke-width:1;"/></g><!--SRC=[jP3F2i8m38VlFaMO5yKDxp9s42zUV0AXz4ySXT5AaocYlhlTse8-W84UyfLVlX3h6CD5QeJgUC8x7VPdrwhEkampRBUggq1IwU6vW5WRaZUSo8ej3rY3beoz3uyQ398EzihMknh8Zq7ZEcLwv3cIMuC3SXfYpSJUyUb14a6LPBFunzi8es2Nya9exuZ3gBcC52BQlyaoEW-gVFzhwNARzjKqUTyF]--></g></svg>